<?xml version="1.0" encoding="UTF-8" standalone="no"?>
<!-- Created with Inkscape (http://www.inkscape.org/) -->

<svg
   width="210mm"
   height="297mm"
   viewBox="0 0 210 297"
   version="1.1"
   id="svg5"
   inkscape:version="1.3-beta (cedbd6c6ff, 2023-05-28)"
   sodipodi:docname="planto_iot_app_icon.svg"
   xml:space="preserve"
   inkscape:export-filename="planto_iot_app_icon_raw.png"
   inkscape:export-xdpi="100"
   inkscape:export-ydpi="100"
   xmlns:inkscape="http://www.inkscape.org/namespaces/inkscape"
   xmlns:sodipodi="http://sodipodi.sourceforge.net/DTD/sodipodi-0.dtd"
   xmlns:xlink="http://www.w3.org/1999/xlink"
   xmlns="http://www.w3.org/2000/svg"
   xmlns:svg="http://www.w3.org/2000/svg"><sodipodi:namedview
     id="namedview7"
     pagecolor="#ffffff"
     bordercolor="#000000"
     borderopacity="0.25"
     inkscape:showpageshadow="2"
     inkscape:pageopacity="0.0"
     inkscape:pagecheckerboard="0"
     inkscape:deskcolor="#d1d1d1"
     inkscape:document-units="mm"
     showgrid="false"
     inkscape:zoom="0.73042535"
     inkscape:cx="0"
     inkscape:cy="405.92786"
     inkscape:window-width="1920"
     inkscape:window-height="1057"
     inkscape:window-x="1912"
     inkscape:window-y="-8"
     inkscape:window-maximized="1"
     inkscape:current-layer="layer1" /><defs
     id="defs2"><linearGradient
       inkscape:collect="always"
       id="linearGradient3466"><stop
         style="stop-color:#083d07;stop-opacity:1;"
         offset="0"
         id="stop3462" /><stop
         style="stop-color:#031802;stop-opacity:1;"
         offset="1"
         id="stop3464" /></linearGradient><radialGradient
       inkscape:collect="always"
       xlink:href="#linearGradient3466"
       id="radialGradient3468"
       cx="111.11478"
       cy="109.95406"
       fx="111.11478"
       fy="109.95406"
       r="75.786644"
       gradientUnits="userSpaceOnUse" /></defs><g
     inkscape:label="Layer 1"
     inkscape:groupmode="layer"
     id="layer1"><rect
       style="fill:url(#radialGradient3468);stroke-width:0.264999;fill-opacity:1"
       id="rect1877"
       width="151.57329"
       height="151.57329"
       x="35.328133"
       y="34.167416"
       inkscape:export-filename="./planto_iot_app_icon.png"
       inkscape:export-xdpi="85.798767"
       inkscape:export-ydpi="85.798767" /><g
       id="g2902"
       transform="translate(-12.812363,0.16492996)"><text
         xml:space="preserve"
         style="font-size:33.8667px;font-family:Comfortaa;-inkscape-font-specification:Comfortaa;fill:#ff7900;stroke-width:0.264999"
         x="110.69143"
         y="101.6597"
         id="text951"><tspan
           sodipodi:role="line"
           id="tspan949"
           style="font-style:normal;font-variant:normal;font-weight:600;font-stretch:normal;font-size:33.8667px;font-family:Fredoka;-inkscape-font-specification:'Fredoka Semi-Bold';text-align:center;text-anchor:middle;fill:#fefefd;fill-opacity:1;stroke-width:0.265"
           x="110.69143"
           y="101.6597">Plant</tspan><tspan
           sodipodi:role="line"
           style="font-style:normal;font-variant:normal;font-weight:normal;font-stretch:normal;font-size:33.8667px;font-family:'Fredoka One';-inkscape-font-specification:'Fredoka One';text-align:center;text-anchor:middle;fill:#fefefd;fill-opacity:1;stroke-width:0.265"
           x="110.69143"
           y="143.99307"
           id="tspan953" /></text><path
         d="m 159.29297,98.334302 q -1.55273,-1.588026 -2.41733,-3.670109 -0.86458,-2.082083 -0.86458,-4.270035 0,-2.576135 0.89987,-4.711149 0.89988,-2.135016 2.69965,-3.934783 1.23512,-1.23513 3.0702,-2.08208 1.83505,-0.846948 4.32295,-1.323357 2.48793,-0.47641 5.62867,-0.599922 3.14077,-0.123508 6.98734,0.123508 0.28231,3.811268 0.1942,6.969678 -0.0883,3.158414 -0.56464,5.663971 -0.4764,2.505554 -1.34098,4.393545 -0.86461,1.887982 -2.13503,3.158405 -1.79978,1.799778 -3.88185,2.717286 -2.08208,0.91753 -4.44647,0.91753 -2.43499,0 -4.46413,-0.82931 -2.02915,-0.82929 -3.68775,-2.523187 z m 3.63482,0 q 0.88224,0.599921 2.04681,0.917524 1.16455,0.317603 2.47027,0.317603 1.87032,0 3.6348,-0.776366 1.76448,-0.776364 3.21137,-2.258525 0.9528,-0.95282 1.6233,-2.487914 0.6705,-1.535094 1.09398,-3.63482 0.42346,-2.099727 0.56463,-4.746441 0.14112,-2.646714 0,-5.822771 -3.31721,-0.07058 -5.94629,0.08822 -2.62906,0.158799 -4.64056,0.582279 -2.0115,0.423474 -3.45838,1.076329 -1.44688,0.652857 -2.36439,1.605673 -1.48217,1.517448 -2.25854,3.211346 -0.77636,1.693896 -0.77636,3.458373 0,1.693898 0.72344,3.546599 0.72342,1.852697 1.78212,2.98196 1.87032,-3.45837 4.48175,-6.210954 2.61143,-2.752582 5.54046,-4.340609 -3.07019,2.646712 -4.97581,5.734544 -1.90565,3.087835 -2.7526,6.757944 z m 0,0 z m 0,0 z"
         id="path2754"
         style="fill:#ffffff;stroke-width:0.705789" /></g><g
       id="g2985"
       transform="translate(-0.41852868)"><path
         d="m 107.17931,144.33016 h -4.09251 q -0.34105,0 -0.60459,-0.21702 -0.26353,-0.21702 -0.32554,-0.55806 l -0.49608,-3.13138 q -0.58906,-0.21701 -1.24014,-0.58908 -0.651068,-0.37205 -1.147148,-0.7751 l -2.88335,1.33317 q -0.34103,0.15515 -0.6821,0.0464 -0.34104,-0.10851 -0.52705,-0.44955 l -2.04627,-3.62745 q -0.18608,-0.31005 -0.093,-0.6511 0.093,-0.34103 0.37204,-0.55805 l 2.66633,-1.95325 q -0.0621,-0.27903 -0.0776,-0.63558 -0.0164,-0.35653 -0.0164,-0.63559 0,-0.27903 0.0164,-0.63556 0.0164,-0.35656 0.0776,-0.63558 l -2.66631,-1.95325 q -0.27905,-0.21702 -0.37204,-0.55805 -0.0931,-0.34105 0.0931,-0.6511 l 2.04624,-3.62746 q 0.18608,-0.34103 0.52707,-0.44954 0.34105,-0.10851 0.68208,0.0464 l 2.88335,1.33316 q 0.49608,-0.40306 1.147148,-0.7751 0.65108,-0.37205 1.24017,-0.55806 l 0.49607,-3.16241 q 0.0621,-0.34103 0.32552,-0.55805 0.26354,-0.21702 0.60459,-0.21702 h 4.09251 q 0.34103,0 0.60458,0.21702 0.26354,0.21702 0.32555,0.55805 l 0.49604,3.1314 q 0.58909,0.21702 1.25566,0.57357 0.66658,0.35654 1.13165,0.7906 l 2.88335,-1.33316 q 0.34104,-0.15491 0.68208,-0.0464 0.34104,0.10851 0.52707,0.44954 l 2.04625,3.59644 q 0.18608,0.31006 0.10851,0.6666 -0.0776,0.35655 -0.38754,0.57357 l -2.66634,1.89124 q 0.0621,0.31003 0.0776,0.66658 0.0164,0.35654 0.0164,0.66657 0,0.31006 -0.0164,0.6511 -0.0164,0.34104 -0.0776,0.65108 l 2.66634,1.92224 q 0.27903,0.21702 0.37204,0.55805 0.0931,0.34105 -0.093,0.6511 l -2.04627,3.62745 q -0.18609,0.34104 -0.52705,0.44955 -0.34105,0.10851 -0.68208,-0.0464 l -2.88335,-1.33315 q -0.49607,0.40306 -1.13166,0.79059 -0.63556,0.38756 -1.25565,0.57357 l -0.49604,3.1314 q -0.0621,0.34104 -0.32555,0.55806 -0.26354,0.21702 -0.60458,0.21702 z m -2.04627,-8.37104 q 1.67422,0 2.85235,-1.17815 1.17815,-1.17815 1.17815,-2.85237 0,-1.6742 -1.17815,-2.85235 -1.17813,-1.17815 -2.85235,-1.17815 -1.6742,0 -2.85236,1.17815 -1.17815,1.17815 -1.17815,2.85235 0,1.67422 1.17815,2.85237 1.17816,1.17815 2.85236,1.17815 z m 0,-1.86023 q -0.8991,0 -1.53468,-0.63558 -0.63558,-0.63559 -0.63558,-1.53471 0,-0.8991 0.63558,-1.53468 0.63558,-0.63558 1.53468,-0.63558 0.89912,0 1.53468,0.63558 0.63559,0.63558 0.63559,1.53468 0,0.89912 -0.63559,1.53471 -0.63556,0.63558 -1.53468,0.63558 z m 0,-2.17029 z m -1.36416,10.54132 h 2.72833 l 0.43405,-3.47244 q 1.02314,-0.24802 1.93776,-0.77507 0.91461,-0.52707 1.6587,-1.27118 l 3.28641,1.42618 1.24014,-2.23228 -2.91436,-2.13926 q 0.12398,-0.52707 0.20154,-1.03863 0.0776,-0.51157 0.0776,-1.03864 0,-0.52705 -0.0621,-1.03861 -0.0621,-0.51156 -0.21701,-1.03864 l 2.91435,-2.13926 -1.24014,-2.23227 -3.2864,1.42617 q -0.71309,-0.80611 -1.61221,-1.34867 -0.89912,-0.54257 -1.98425,-0.6976 l -0.43406,-3.47241 h -2.72833 l -0.43405,3.47241 q -1.05414,0.21702 -1.96875,0.74409 -0.91462,0.52708 -1.627708,1.30218 l -3.28642,-1.42617 -1.24014,2.23227 2.91436,2.13926 q -0.12398,0.52708 -0.20155,1.03864 -0.0776,0.51156 -0.0776,1.03861 0,0.52707 0.0776,1.03864 0.0776,0.51156 0.20155,1.03863 l -2.91436,2.13926 1.24014,2.23228 3.28642,-1.42618 q 0.744098,0.74411 1.658708,1.27118 0.91461,0.52705 1.93775,0.77507 z"
         id="path2763"
         style="fill:#ffffff;stroke-width:0.620076" /><text
         xml:space="preserve"
         style="font-size:33.8667px;font-family:Comfortaa;-inkscape-font-specification:Comfortaa;fill:#ff7900;stroke-width:0.264999"
         x="83.932808"
         y="144.33018"
         id="text2890"><tspan
           sodipodi:role="line"
           id="tspan2886"
           style="font-style:normal;font-variant:normal;font-weight:600;font-stretch:normal;font-size:33.8667px;font-family:Fredoka;-inkscape-font-specification:'Fredoka Semi-Bold';text-align:center;text-anchor:middle;fill:#fefefd;fill-opacity:1;stroke-width:0.265"
           x="83.932808"
           y="144.33018">I</tspan><tspan
           sodipodi:role="line"
           style="font-style:normal;font-variant:normal;font-weight:normal;font-stretch:normal;font-size:33.8667px;font-family:'Fredoka One';-inkscape-font-specification:'Fredoka One';text-align:center;text-anchor:middle;fill:#fefefd;fill-opacity:1;stroke-width:0.265"
           x="83.932808"
           y="186.66356"
           id="tspan2888" /></text><text
         xml:space="preserve"
         style="font-size:33.8667px;font-family:Comfortaa;-inkscape-font-specification:Comfortaa;fill:#ff7900;stroke-width:0.264999"
         x="130.26074"
         y="144.33018"
         id="text2896"><tspan
           sodipodi:role="line"
           id="tspan2892"
           style="font-style:normal;font-variant:normal;font-weight:600;font-stretch:normal;font-size:33.8667px;font-family:Fredoka;-inkscape-font-specification:'Fredoka Semi-Bold';text-align:center;text-anchor:middle;fill:#fefefd;fill-opacity:1;stroke-width:0.265"
           x="130.26074"
           y="144.33018">T</tspan><tspan
           sodipodi:role="line"
           style="font-style:normal;font-variant:normal;font-weight:normal;font-stretch:normal;font-size:33.8667px;font-family:'Fredoka One';-inkscape-font-specification:'Fredoka One';text-align:center;text-anchor:middle;fill:#fefefd;fill-opacity:1;stroke-width:0.265"
           x="130.26074"
           y="186.66356"
           id="tspan2894" /></text></g></g></svg>
