<?xml version="1.0" encoding="UTF-8" standalone="no"?>
<!-- Created with Inkscape (http://www.inkscape.org/) -->

<svg
   width="210mm"
   height="297mm"
   viewBox="0 0 210 297"
   version="1.1"
   id="svg5"
   inkscape:version="1.3-beta (cedbd6c6ff, 2023-05-28)"
   sodipodi:docname="planto_iot_app_banner.svg"
   xml:space="preserve"
   inkscape:export-filename="planto_iot_app_icon_raw.png"
   inkscape:export-xdpi="100"
   inkscape:export-ydpi="100"
   xmlns:inkscape="http://www.inkscape.org/namespaces/inkscape"
   xmlns:sodipodi="http://sodipodi.sourceforge.net/DTD/sodipodi-0.dtd"
   xmlns:xlink="http://www.w3.org/1999/xlink"
   xmlns="http://www.w3.org/2000/svg"
   xmlns:svg="http://www.w3.org/2000/svg"><sodipodi:namedview
     id="namedview7"
     pagecolor="#ffffff"
     bordercolor="#000000"
     borderopacity="0.25"
     inkscape:showpageshadow="2"
     inkscape:pageopacity="0.0"
     inkscape:pagecheckerboard="0"
     inkscape:deskcolor="#d1d1d1"
     inkscape:document-units="mm"
     showgrid="false"
     inkscape:zoom="0.99859419"
     inkscape:cx="447.62928"
     inkscape:cy="338.97654"
     inkscape:window-width="1920"
     inkscape:window-height="1057"
     inkscape:window-x="1912"
     inkscape:window-y="-8"
     inkscape:window-maximized="1"
     inkscape:current-layer="layer1" /><defs
     id="defs2"><linearGradient
       inkscape:collect="always"
       id="linearGradient3466"><stop
         style="stop-color:#083d07;stop-opacity:1;"
         offset="0"
         id="stop3462" /><stop
         style="stop-color:#031802;stop-opacity:1;"
         offset="1"
         id="stop3464" /></linearGradient><radialGradient
       inkscape:collect="always"
       xlink:href="#linearGradient3466"
       id="radialGradient3468"
       cx="111.11478"
       cy="109.95406"
       fx="111.11478"
       fy="109.95406"
       r="75.786644"
       gradientUnits="userSpaceOnUse"
       gradientTransform="matrix(1.7874741,0,0,0.87279011,-93.536329,8.5744022)" /></defs><g
     inkscape:label="Layer 1"
     inkscape:groupmode="layer"
     id="layer1"><rect
       style="fill:url(#radialGradient3468);fill-opacity:1;stroke-width:0.330994"
       id="rect1877"
       width="270.93332"
       height="132.29167"
       x="-30.38821"
       y="38.395397"
       inkscape:export-filename="./planto_iot_app_banner.png"
       inkscape:export-xdpi="96.000008"
       inkscape:export-ydpi="96.000008" /><g
       id="g2902"
       transform="translate(-8.310111,-7.5320328)"><text
         xml:space="preserve"
         style="font-size:33.8667px;font-family:Comfortaa;-inkscape-font-specification:Comfortaa;fill:#ff7900;stroke-width:0.264999"
         x="110.69143"
         y="101.6597"
         id="text951"><tspan
           sodipodi:role="line"
           id="tspan949"
           style="font-style:normal;font-variant:normal;font-weight:600;font-stretch:normal;font-size:33.8667px;font-family:Fredoka;-inkscape-font-specification:'Fredoka Semi-Bold';text-align:center;text-anchor:middle;fill:#fefefd;fill-opacity:1;stroke-width:0.265"
           x="110.69143"
           y="101.6597">Plant</tspan><tspan
           sodipodi:role="line"
           style="font-style:normal;font-variant:normal;font-weight:normal;font-stretch:normal;font-size:33.8667px;font-family:'Fredoka One';-inkscape-font-specification:'Fredoka One';text-align:center;text-anchor:middle;fill:#fefefd;fill-opacity:1;stroke-width:0.265"
           x="110.69143"
           y="143.99307"
           id="tspan953" /></text><path
         d="m 159.29297,98.334302 q -1.55273,-1.588026 -2.41733,-3.670109 -0.86458,-2.082083 -0.86458,-4.270035 0,-2.576135 0.89987,-4.711149 0.89988,-2.135016 2.69965,-3.934783 1.23512,-1.23513 3.0702,-2.08208 1.83505,-0.846948 4.32295,-1.323357 2.48793,-0.47641 5.62867,-0.599922 3.14077,-0.123508 6.98734,0.123508 0.28231,3.811268 0.1942,6.969678 -0.0883,3.158414 -0.56464,5.663971 -0.4764,2.505554 -1.34098,4.393545 -0.86461,1.887982 -2.13503,3.158405 -1.79978,1.799778 -3.88185,2.717286 -2.08208,0.91753 -4.44647,0.91753 -2.43499,0 -4.46413,-0.82931 -2.02915,-0.82929 -3.68775,-2.523187 z m 3.63482,0 q 0.88224,0.599921 2.04681,0.917524 1.16455,0.317603 2.47027,0.317603 1.87032,0 3.6348,-0.776366 1.76448,-0.776364 3.21137,-2.258525 0.9528,-0.95282 1.6233,-2.487914 0.6705,-1.535094 1.09398,-3.63482 0.42346,-2.099727 0.56463,-4.746441 0.14112,-2.646714 0,-5.822771 -3.31721,-0.07058 -5.94629,0.08822 -2.62906,0.158799 -4.64056,0.582279 -2.0115,0.423474 -3.45838,1.076329 -1.44688,0.652857 -2.36439,1.605673 -1.48217,1.517448 -2.25854,3.211346 -0.77636,1.693896 -0.77636,3.458373 0,1.693898 0.72344,3.546599 0.72342,1.852697 1.78212,2.98196 1.87032,-3.45837 4.48175,-6.210954 2.61143,-2.752582 5.54046,-4.340609 -3.07019,2.646712 -4.97581,5.734544 -1.90565,3.087835 -2.7526,6.757944 z m 0,0 z m 0,0 z"
         id="path2754"
         style="fill:#ffffff;stroke-width:0.705789" /></g><g
       id="g2985"
       transform="translate(-0.41852868)"><path
         d="m 107.17931,144.33016 h -4.09251 q -0.34105,0 -0.60459,-0.21702 -0.26353,-0.21702 -0.32554,-0.55806 l -0.49608,-3.13138 q -0.58906,-0.21701 -1.24014,-0.58908 -0.651068,-0.37205 -1.147148,-0.7751 l -2.88335,1.33317 q -0.34103,0.15515 -0.6821,0.0464 -0.34104,-0.10851 -0.52705,-0.44955 l -2.04627,-3.62745 q -0.18608,-0.31005 -0.093,-0.6511 0.093,-0.34103 0.37204,-0.55805 l 2.66633,-1.95325 q -0.0621,-0.27903 -0.0776,-0.63558 -0.0164,-0.35653 -0.0164,-0.63559 0,-0.27903 0.0164,-0.63556 0.0164,-0.35656 0.0776,-0.63558 l -2.66631,-1.95325 q -0.27905,-0.21702 -0.37204,-0.55805 -0.0931,-0.34105 0.0931,-0.6511 l 2.04624,-3.62746 q 0.18608,-0.34103 0.52707,-0.44954 0.34105,-0.10851 0.68208,0.0464 l 2.88335,1.33316 q 0.49608,-0.40306 1.147148,-0.7751 0.65108,-0.37205 1.24017,-0.55806 l 0.49607,-3.16241 q 0.0621,-0.34103 0.32552,-0.55805 0.26354,-0.21702 0.60459,-0.21702 h 4.09251 q 0.34103,0 0.60458,0.21702 0.26354,0.21702 0.32555,0.55805 l 0.49604,3.1314 q 0.58909,0.21702 1.25566,0.57357 0.66658,0.35654 1.13165,0.7906 l 2.88335,-1.33316 q 0.34104,-0.15491 0.68208,-0.0464 0.34104,0.10851 0.52707,0.44954 l 2.04625,3.59644 q 0.18608,0.31006 0.10851,0.6666 -0.0776,0.35655 -0.38754,0.57357 l -2.66634,1.89124 q 0.0621,0.31003 0.0776,0.66658 0.0164,0.35654 0.0164,0.66657 0,0.31006 -0.0164,0.6511 -0.0164,0.34104 -0.0776,0.65108 l 2.66634,1.92224 q 0.27903,0.21702 0.37204,0.55805 0.0931,0.34105 -0.093,0.6511 l -2.04627,3.62745 q -0.18609,0.34104 -0.52705,0.44955 -0.34105,0.10851 -0.68208,-0.0464 l -2.88335,-1.33315 q -0.49607,0.40306 -1.13166,0.79059 -0.63556,0.38756 -1.25565,0.57357 l -0.49604,3.1314 q -0.0621,0.34104 -0.32555,0.55806 -0.26354,0.21702 -0.60458,0.21702 z m -2.04627,-8.37104 q 1.67422,0 2.85235,-1.17815 1.17815,-1.17815 1.17815,-2.85237 0,-1.6742 -1.17815,-2.85235 -1.17813,-1.17815 -2.85235,-1.17815 -1.6742,0 -2.85236,1.17815 -1.17815,1.17815 -1.17815,2.85235 0,1.67422 1.17815,2.85237 1.17816,1.17815 2.85236,1.17815 z m 0,-1.86023 q -0.8991,0 -1.53468,-0.63558 -0.63558,-0.63559 -0.63558,-1.53471 0,-0.8991 0.63558,-1.53468 0.63558,-0.63558 1.53468,-0.63558 0.89912,0 1.53468,0.63558 0.63559,0.63558 0.63559,1.53468 0,0.89912 -0.63559,1.53471 -0.63556,0.63558 -1.53468,0.63558 z m 0,-2.17029 z m -1.36416,10.54132 h 2.72833 l 0.43405,-3.47244 q 1.02314,-0.24802 1.93776,-0.77507 0.91461,-0.52707 1.6587,-1.27118 l 3.28641,1.42618 1.24014,-2.23228 -2.91436,-2.13926 q 0.12398,-0.52707 0.20154,-1.03863 0.0776,-0.51157 0.0776,-1.03864 0,-0.52705 -0.0621,-1.03861 -0.0621,-0.51156 -0.21701,-1.03864 l 2.91435,-2.13926 -1.24014,-2.23227 -3.2864,1.42617 q -0.71309,-0.80611 -1.61221,-1.34867 -0.89912,-0.54257 -1.98425,-0.6976 l -0.43406,-3.47241 h -2.72833 l -0.43405,3.47241 q -1.05414,0.21702 -1.96875,0.74409 -0.91462,0.52708 -1.627708,1.30218 l -3.28642,-1.42617 -1.24014,2.23227 2.91436,2.13926 q -0.12398,0.52708 -0.20155,1.03864 -0.0776,0.51156 -0.0776,1.03861 0,0.52707 0.0776,1.03864 0.0776,0.51156 0.20155,1.03863 l -2.91436,2.13926 1.24014,2.23228 3.28642,-1.42618 q 0.744098,0.74411 1.658708,1.27118 0.91461,0.52705 1.93775,0.77507 z"
         id="path2763"
         style="fill:#ffffff;stroke-width:0.620076" /><text
         xml:space="preserve"
         style="font-size:33.8667px;font-family:Comfortaa;-inkscape-font-specification:Comfortaa;fill:#ff7900;stroke-width:0.264999"
         x="83.932808"
         y="144.33018"
         id="text2890"><tspan
           sodipodi:role="line"
           id="tspan2886"
           style="font-style:normal;font-variant:normal;font-weight:600;font-stretch:normal;font-size:33.8667px;font-family:Fredoka;-inkscape-font-specification:'Fredoka Semi-Bold';text-align:center;text-anchor:middle;fill:#fefefd;fill-opacity:1;stroke-width:0.265"
           x="83.932808"
           y="144.33018">I</tspan><tspan
           sodipodi:role="line"
           style="font-style:normal;font-variant:normal;font-weight:normal;font-stretch:normal;font-size:33.8667px;font-family:'Fredoka One';-inkscape-font-specification:'Fredoka One';text-align:center;text-anchor:middle;fill:#fefefd;fill-opacity:1;stroke-width:0.265"
           x="83.932808"
           y="186.66356"
           id="tspan2888" /></text><text
         xml:space="preserve"
         style="font-size:33.8667px;font-family:Comfortaa;-inkscape-font-specification:Comfortaa;fill:#ff7900;stroke-width:0.264999"
         x="130.26074"
         y="144.33018"
         id="text2896"><tspan
           sodipodi:role="line"
           id="tspan2892"
           style="font-style:normal;font-variant:normal;font-weight:600;font-stretch:normal;font-size:33.8667px;font-family:Fredoka;-inkscape-font-specification:'Fredoka Semi-Bold';text-align:center;text-anchor:middle;fill:#fefefd;fill-opacity:1;stroke-width:0.265"
           x="130.26074"
           y="144.33018">T</tspan><tspan
           sodipodi:role="line"
           style="font-style:normal;font-variant:normal;font-weight:normal;font-stretch:normal;font-size:33.8667px;font-family:'Fredoka One';-inkscape-font-specification:'Fredoka One';text-align:center;text-anchor:middle;fill:#fefefd;fill-opacity:1;stroke-width:0.265"
           x="130.26074"
           y="186.66356"
           id="tspan2894" /></text></g><path
       d="m 10.533729,54.588226 c 0,-1.519891 1.235718,-2.755609 2.755609,-2.755609 h 9.644632 c 1.519891,0 2.755609,1.235718 2.755609,2.755609 v 16.533659 c 0,1.519884 -1.235718,2.755606 -2.755609,2.755606 h -9.644632 c -1.519891,0 -2.755609,-1.235722 -2.755609,-2.755606 z m 5.511218,16.533659 c 0,0.378894 0.310007,0.688901 0.688903,0.688901 h 2.755609 c 0.378896,0 0.688902,-0.310007 0.688902,-0.688901 0,-0.378902 -0.310006,-0.688902 -0.688902,-0.688902 H 16.73385 c -0.378896,0 -0.688903,0.31 -0.688903,0.688902 z M 22.93397,54.588226 h -9.644632 v 13.778045 h 9.644632 z"
       id="path4224"
       style="fill:#ffffff;stroke-width:0.0430563" /><path
       d="m 166.24808,137.63462 c 0,-1.00577 0.81599,-1.82176 1.82176,-1.82176 h 10.93052 c 1.00577,0 1.82176,0.81599 1.82176,1.82176 v 15.78854 c 0,1.00576 -0.81599,1.82176 -1.82176,1.82176 h -3.6435 v -3.03626 c 0,-1.00577 -0.816,-1.82176 -1.82176,-1.82176 -1.00575,0 -1.82175,0.81599 -1.82175,1.82176 v 3.03626 h -3.64351 c -1.00577,0 -1.82176,-0.816 -1.82176,-1.82176 z m 3.03626,6.67976 c -0.33399,0 -0.60725,0.27327 -0.60725,0.60726 v 1.2145 c 0,0.33399 0.27326,0.60725 0.60725,0.60725 h 1.2145 c 0.33399,0 0.60726,-0.27326 0.60726,-0.60725 v -1.2145 c 0,-0.33399 -0.27327,-0.60726 -0.60726,-0.60726 z m 3.03626,0.60726 v 1.2145 c 0,0.33399 0.27326,0.60725 0.60725,0.60725 h 1.21451 c 0.33398,0 0.60724,-0.27326 0.60724,-0.60725 v -1.2145 c 0,-0.33399 -0.27326,-0.60726 -0.60724,-0.60726 h -1.21451 c -0.33399,0 -0.60725,0.27327 -0.60725,0.60726 z m 4.25076,-0.60726 c -0.33399,0 -0.60725,0.27327 -0.60725,0.60726 v 1.2145 c 0,0.33399 0.27326,0.60725 0.60725,0.60725 h 1.2145 c 0.33399,0 0.60726,-0.27326 0.60726,-0.60725 v -1.2145 c 0,-0.33399 -0.27327,-0.60726 -0.60726,-0.60726 z m -7.89427,-4.25076 v 1.2145 c 0,0.33399 0.27326,0.60726 0.60725,0.60726 h 1.2145 c 0.33399,0 0.60726,-0.27327 0.60726,-0.60726 v -1.2145 c 0,-0.33399 -0.27327,-0.60725 -0.60726,-0.60725 h -1.2145 c -0.33399,0 -0.60725,0.27326 -0.60725,0.60725 z m 4.25076,-0.60725 c -0.33399,0 -0.60725,0.27326 -0.60725,0.60725 v 1.2145 c 0,0.33399 0.27326,0.60726 0.60725,0.60726 h 1.21451 c 0.33398,0 0.60724,-0.27327 0.60724,-0.60726 v -1.2145 c 0,-0.33399 -0.27326,-0.60725 -0.60724,-0.60725 z m 3.03626,0.60725 v 1.2145 c 0,0.33399 0.27326,0.60726 0.60725,0.60726 h 1.2145 c 0.33399,0 0.60726,-0.27327 0.60726,-0.60726 v -1.2145 c 0,-0.33399 -0.27327,-0.60725 -0.60726,-0.60725 h -1.2145 c -0.33399,0 -0.60725,0.27326 -0.60725,0.60725 z m 14.57403,3.03626 v 0.60726 c 0,1.67752 -1.35872,3.03625 -3.03625,3.03625 h -0.60725 v -0.60725 c 0,-1.67754 1.35872,-3.03626 3.03626,-3.03626 z m 0,4.85801 c 0,1.67754 -1.35872,3.03626 -3.03625,3.03626 h -0.60725 v -0.60725 c 0,-1.67754 1.35872,-3.03626 3.03626,-3.03626 h 0.60724 z m 0,4.25077 c 0,1.67753 -1.35872,3.03626 -3.03625,3.03626 h -0.60725 v -0.60726 c 0,-1.67753 1.35872,-3.03626 3.03626,-3.03626 h 0.60724 z m -4.858,2.429 v 0.60726 h -0.60726 c -1.67753,0 -3.03626,-1.35873 -3.03626,-3.03626 v -0.60726 h 0.60726 c 1.67753,0 3.03626,1.35873 3.03626,3.03626 z m 0,-3.64351 h -0.60726 c -1.67753,0 -3.03626,-1.35872 -3.03626,-3.03626 v -0.60725 h 0.60726 c 1.67753,0 3.03626,1.35872 3.03626,3.03626 z m 0,-4.85801 v 0.60725 h -0.60726 c -1.67753,0 -3.03626,-1.35873 -3.03626,-3.03625 v -0.60726 h 0.60726 c 1.67753,0 3.03626,1.35872 3.03626,3.03626 z m 0.60724,-9.10878 c 0.50478,0 0.91089,0.4061 0.91089,0.91088 v 3.94714 c 0,0.50478 -0.40611,0.91087 -0.91089,0.91087 -0.50477,0 -0.91087,-0.40609 -0.91087,-0.91087 v -3.94714 c 0,-0.50478 0.4061,-0.91088 0.91087,-0.91088 z m 3.64352,2.42901 v 1.21451 c 0,0.50477 -0.40611,0.91087 -0.91089,0.91087 -0.50477,0 -0.91087,-0.4061 -0.91087,-0.91087 v -1.21451 c 0,-0.50478 0.4061,-0.91088 0.91087,-0.91088 0.50478,0 0.91089,0.4061 0.91089,0.91088 z m -6.37615,-0.91088 c 0.50478,0 0.91088,0.4061 0.91088,0.91088 v 1.21451 c 0,0.50477 -0.4061,0.91087 -0.91088,0.91087 -0.50477,0 -0.91087,-0.4061 -0.91087,-0.91087 v -1.21451 c 0,-0.50478 0.4061,-0.91088 0.91087,-0.91088 z"
       id="path4959"
       style="fill:#ffffff;stroke-width:0.0379532" /><path
       d="m 28.840809,136.12512 v 1.25377 6.26889 c 0,0.69349 0.560281,1.25377 1.253776,1.25377 h 1.253776 c 0.693495,0 1.253776,-0.56028 1.253776,-1.25377 v -3.45572 c 0.387888,0.25859 0.807119,0.47016 1.253777,0.6308 v 0.94426 c 0,0.34479 0.282099,0.62688 0.626888,0.62688 0.344789,0 0.626888,-0.28209 0.626888,-0.62688 v -0.66216 c 0.207657,0.0235 0.415314,0.0353 0.626888,0.0353 0.211575,0 0.419231,-0.0118 0.626889,-0.0353 v 0.66216 c 0,0.34479 0.282098,0.62688 0.626888,0.62688 0.344788,0 0.626888,-0.28209 0.626888,-0.62688 v -0.94818 c 0.446657,-0.15672 0.865888,-0.36829 1.253775,-0.6308 v 3.45964 c 0,0.69349 0.560282,1.25377 1.253777,1.25377 h 1.253776 c 0.693495,0 1.253775,-0.56028 1.253775,-1.25377 v -6.26889 l 1.253776,1.25378 v 1.93944 c 0,0.37221 0.109706,0.73267 0.317362,1.0422 l 1.641665,2.46445 c 0.344787,0.51327 0.92074,0.82279 1.539792,0.82279 0.881563,0 1.641663,-0.62297 1.814058,-1.48885 l 0.795364,-3.98074 c 0.101869,-0.50935 -0.01176,-1.03829 -0.313445,-1.46143 l -0.152803,-0.2155 v -3.19713 c 0,-0.5211 -0.419231,-0.94033 -0.940332,-0.94033 -0.521101,0 -0.940332,0.41923 -0.940332,0.94033 v 0.5642 l -2.072649,-2.90327 c -1.061792,-1.48102 -2.770062,-2.36259 -4.591956,-2.36259 H 35.736578 35.10969 32.602137 30.721473 c -2.597667,0 -4.70166,2.10399 -4.70166,4.70166 v 2.11575 c -0.572036,0.46233 -0.940332,1.16757 -0.940332,1.95902 v 0.68958 c 0,0.31344 0.250755,0.5642 0.564199,0.5642 1.245941,0 2.256797,-1.01086 2.256797,-2.25679 v -0.25077 -1.25377 -1.56722 c 0,-0.95208 0.474084,-1.79447 1.195006,-2.30773 -0.164559,0.42315 -0.254674,0.88548 -0.254674,1.3674 z m 18.179754,4.38822 a 0.62688807,0.62688807 0 1 1 1.253776,0 0.62688807,0.62688807 0 1 1 -1.253776,0 z m -15.41361,-6.63718 c -0.164558,-0.16456 -0.258592,-0.39181 -0.258592,-0.62689 0,-0.48975 0.395724,-0.88548 0.88548,-0.88548 h 7.005474 c 0.489756,0 0.88548,0.39573 0.88548,0.88548 0,0.23508 -0.09403,0.46233 -0.258592,0.62689 l -0.916823,0.91682 c -0.854135,0.85414 -2.009961,1.33214 -3.212802,1.33214 -1.202841,0 -2.358666,-0.478 -3.208883,-1.32822 l -0.916824,-0.91682 z"
       id="path5694"
       style="fill:#ffffff;stroke-width:0.0391805" /><path
       d="m -16.567033,96.408591 c 0,-1.270937 1.033312,-2.30425 2.30425,-2.30425 h 3.827216 c 0.9433027,0 1.7893946,0.572462 2.138633,1.447357 l 1.7281879,4.313273 h 3.8272158 v -1.216936 c 0,-0.892897 0.2088221,-1.774993 0.6084662,-2.577881 l 0.09001,-0.180018 c 0.2844301,-0.568863 0.9757055,-0.799287 1.54456718,-0.514856 0.56886232,0.28443 0.79928754,0.975705 0.51485599,1.544567 l -0.09000974,0.18002 c -0.24122559,0.478852 -0.36363936,1.008109 -0.36363936,1.544568 v 1.220536 H 1.5789392 c 0.7956859,0 1.4401561,0.644459 1.4401561,1.440159 v 1.63457 c 0,0.59406 -0.3060337,1.14853 -0.8136885,1.46536 l -1.55896942,0.9757 c -0.51125462,-0.21242 -1.07291578,-0.33123 -1.65977978,-0.33123 -1.4149543,0 -2.6678909,0.68047 -3.4563758,1.72819 h -2.8803131 c 0,0.63727 -0.5148559,1.15212 -1.1521249,1.15212 h -0.2952327 c -0.061208,0.17282 -0.1332143,0.34204 -0.2088222,0.50765 l 0.2088222,0.20883 c 0.4500491,0.45005 0.4500491,1.18093 0,1.63098 l -0.8136879,0.81368 c -0.4500492,0.45005 -1.1809282,0.45005 -1.6309782,0 l -0.208822,-0.20882 c -0.165618,0.0792 -0.334836,0.14762 -0.507655,0.20882 v 0.29523 c 0,0.63728 -0.514856,1.15214 -1.152126,1.15214 h -1.152125 c -0.637269,0 -1.152125,-0.51486 -1.152125,-1.15214 v -0.29523 c -0.172819,-0.0612 -0.342037,-0.13321 -0.507656,-0.20882 l -0.208822,0.20882 c -0.450049,0.45005 -1.180928,0.45005 -1.630978,0 l -0.813688,-0.81728 c -0.450048,-0.45005 -0.450048,-1.18093 0,-1.63098 l 0.208823,-0.20883 c -0.07921,-0.16561 -0.147616,-0.33483 -0.208823,-0.50765 h -0.295232 c -0.637269,0 -1.152125,-0.51485 -1.152125,-1.15212 v -1.14853 c 0,-0.63727 0.514856,-1.15212 1.152125,-1.15212 h 0.295232 c 0.06121,-0.17282 0.133215,-0.34204 0.208823,-0.50765 l -0.208823,-0.20883 c -0.450048,-0.45005 -0.450048,-1.18093 0,-1.63098 l 0.813688,-0.81368 c 0.324036,-0.32404 0.788486,-0.41405 1.191731,-0.27363 v -0.0216 -1.152129 -3.456379 z m 6.131466,0 h -3.827216 v 3.45638 h 1.152125 4.0576418 z m -3.251153,6.912749 a 2.880315,2.880315 0 1 0 0,5.76063 2.880315,2.880315 0 1 0 0,-5.76063 z m 12.6733776,6.91275 a 0.864095,0.864095 0 1 0 0,-1.72819 0.864095,0.864095 0 1 0 0,1.72819 z m 0,2.30426 c -1.7497902,0 -3.1683444,-1.41857 -3.1683444,-3.16835 0,-1.07292 0.5328576,-2.01982 1.3465454,-2.59228 0.514856,-0.36364 1.1449246,-0.57607 1.821799,-0.57607 0.0972095,0 0.19082051,0.003 0.28443084,0.0109 1.61657592,0.14401 2.88391286,1.50136 2.88391286,3.15754 0,1.74979 -1.41855348,3.16834 -3.1683437,3.16834 z"
       id="path7164"
       style="fill:#ffffff;stroke-width:0.0360038" /><path
       d="m 194.91598,80.174418 c -4.28027,0 -7.75295,-3.47267 -7.75295,-7.75295 0,-3.68265 5.25747,-10.59167 6.7273,-12.44914 0.24228,-0.30285 0.60166,-0.47245 0.98931,-0.47245 h 0.0727 c 0.38765,0 0.74703,0.1696 0.98931,0.47245 1.46983,1.85747 6.72731,8.76649 6.72731,12.44914 0,4.28028 -3.47268,7.75295 -7.75296,7.75295 z m -3.87647,-7.10687 c 0,-0.35534 -0.29074,-0.64608 -0.64608,-0.64608 -0.35535,0 -0.64608,0.29074 -0.64608,0.64608 0,2.49952 2.02303,4.52255 4.52255,4.52255 0.35535,0 0.64608,-0.29073 0.64608,-0.64607 0,-0.35535 -0.29073,-0.64608 -0.64608,-0.64608 -1.78479,0 -3.23039,-1.44561 -3.23039,-3.2304 z"
       id="path8625"
       style="fill:#ffffff;stroke-width:0.0403799" /><g
       style="stroke:#00979c"
       id="g10109"
       transform="matrix(0.03624435,0,0,0.03624435,-20.348749,132.59984)"><g
         fill="none"
         id="g10092"
         style="stroke:#ffffff;stroke-opacity:1"><path
           d="M 174,30 C 78.9,22.43 -1,135 38,222 c 38,94.4 181,120 249,44.4 65.9,-64.6 91.3,-164 172,-215 82,-56 214,-3.12 230,96.4 4.22204,25.79235 -0.22116,51.39426 -10.79014,74.4645 C 649.72759,284.43632 576.75719,328.22197 509,307.8 440.3,292.3 391,233.6 363,171.8 328.5,112.8 283.4,49.8 213,33.8 200.5,30.96 187.6,29.84 174.8,29.86 Z"
           stroke-width="59"
           id="path10086"
           sodipodi:nodetypes="cccccsccscc"
           style="stroke:#ffffff;stroke-opacity:1" /><path
           d="M 118,165 H 238"
           stroke-width="25"
           id="path10088"
           style="stroke:#ffffff;stroke-opacity:1" /><path
           d="M 486,165 H 586 M 535,115 V 215"
           stroke-width="32"
           id="path10090"
           style="stroke:#ffffff;stroke-opacity:1" /></g><path
         d="M 84,485 77.6,462 H 37 l -6.6,23 H 8.7 L 43.1,369 h 30.6 l 34.4,116 z M 57.6,390 42.3,444.1 H 72.7 Z M 180,485 c 0,0 -11.7,-27.6 -18.3,-41 -3.83,-5.76 -11.4,-8.02 -18,-7.1 -0.6,15.7 -0.48,48.1 -0.48,48.1 h -21.9 V 369 c 0,0 33,-0.97 49.4,1.2 34.7,3.92 37,54.4 2.13,59.7 6.54,2.6 10.5,8.65 13.3,14.8 l 17.5,36.2 c 1.23,2.48 1.2,4.4 -2.34,4.38 z m -5.42,-82.1 c -0.1,-17.9 -18,-15.9 -31.3,-16 v 32.8 c 15.7,0.53 31,-1.07 31.3,-16.8 z M 302,455 c -10.6,24.5 -33.8,30.2 -55.8,29.8 h -26.9 v -116 l 40.9,0.2 c 50.6,1.65 52.4,56.2 41.7,86.4 z m -28,-61.3 c -10.2,-8.76 -21.4,-6.97 -32.8,-6.97 v 79.7 c 10,0 20.9,0.8 29.4,-5.4 18.1,-11.4 15.8,-54.6 3.35,-67.3 z M 407,442 c 2.17,58.6 -81.5,58.4 -84,12.7 -1.53,-14 -0.27,-28 -0.68,-42 v -44.2 h 21.9 l 0.4,83 c 2.57,22.9 33,20.9 37.6,8.2 4.66,-10.1 2.5,-21.5 2.98,-32.3 v -58.9 h 21.9 V 442 Z m 21,-56 v -17.9 h 73.5 V 386 h -25.6 v 80.4 h 25.6 v 18.1 H 428 v -18.1 h 25.6 V 386 Z m 155,99 -37.6,-84.4 V 485 H 525.5 V 369 h 26.9 l 37.4,83.6 c 0.1,-6 0.04,-83.6 0.04,-83.6 h 19.9 v 116 z m 117,-10 c -24.3,20.9 -66.7,16.3 -75.1,-24.9 -11.5,-62.6 22.4,-98.6 69.6,-77.6 29,16.3 27.4,83.4 5.5,103 z m -29.3,-88.7 c -20.7,-0.55 -23.7,20.6 -24.5,30.8 -0.17,19.3 -1.88,51.4 24.9,50 8.3,0 15.5,-6.02 18.2,-13.7 5.45,-12.1 9.56,-68.1 -18.6,-67.1 z M 676,13.4 v 2.34 h 5.15 v 13.6 h 2.66 v -13.6 h 5.2 V 13.4 Z m 14.8,0 v 15.9 h 2.43 V 15.7 l 4.3,13.6 h 2.4 l 4.1,-13.3 v 13.3 h 2.4 V 13.4 h -3.8 l -3.9,12.7 -4,-12.7 z"
         fill="#00979c"
         id="path10094"
         style="fill:#ffffff;fill-opacity:1;stroke:#dddddd;stroke-opacity:1" /></g><path
       d="m 184.6336,95.262885 c 0,-0.521861 -0.41985,-0.941704 -0.94171,-0.941704 -0.52186,0 -0.9417,0.419843 -0.9417,0.941704 v 1.569507 c -1.38509,0 -2.51121,1.126123 -2.51121,2.511211 h -1.5695 c -0.52187,0 -0.94171,0.419842 -0.94171,0.941697 0,0.52187 0.41984,0.94171 0.94171,0.94171 h 1.5695 v 2.19731 h -1.5695 c -0.52187,0 -0.94171,0.41984 -0.94171,0.9417 0,0.52186 0.41984,0.94171 0.94171,0.94171 h 1.5695 v 2.1973 h -1.5695 c -0.52187,0 -0.94171,0.41985 -0.94171,0.9417 0,0.52187 0.41984,0.94171 0.94171,0.94171 h 1.5695 c 0,1.38509 1.12612,2.51121 2.51121,2.51121 v 1.56951 c 0,0.52186 0.41984,0.9417 0.9417,0.9417 0.52186,0 0.94171,-0.41984 0.94171,-0.9417 v -1.56951 h 2.19731 v 1.56951 c 0,0.52186 0.41984,0.9417 0.9417,0.9417 0.52186,0 0.94171,-0.41984 0.94171,-0.9417 v -1.56951 h 2.1973 v 1.56951 c 0,0.52186 0.41985,0.9417 0.9417,0.9417 0.52186,0 0.94171,-0.41984 0.94171,-0.9417 v -1.56951 c 1.38509,0 2.51121,-1.12612 2.51121,-2.51121 h 1.56951 c 0.52186,0 0.9417,-0.41984 0.9417,-0.94171 0,-0.52185 -0.41984,-0.9417 -0.9417,-0.9417 h -1.56951 v -2.1973 h 1.56951 c 0.52186,0 0.9417,-0.41985 0.9417,-0.94171 0,-0.52186 -0.41984,-0.9417 -0.9417,-0.9417 h -1.56951 v -2.19731 h 1.56951 c 0.52186,0 0.9417,-0.41984 0.9417,-0.94171 0,-0.521855 -0.41984,-0.941697 -0.9417,-0.941697 h -1.56951 c 0,-1.385088 -1.12612,-2.511211 -2.51121,-2.511211 v -1.569507 c 0,-0.521861 -0.41985,-0.941704 -0.94171,-0.941704 -0.52185,0 -0.9417,0.419843 -0.9417,0.941704 v 1.569507 h -2.1973 v -1.569507 c 0,-0.521861 -0.41985,-0.941704 -0.94171,-0.941704 -0.52186,0 -0.9417,0.419843 -0.9417,0.941704 v 1.569507 h -2.19731 z m -0.62781,4.080718 h 7.53363 c 0.69451,0 1.25561,0.561092 1.25561,1.255607 v 7.53362 c 0,0.69451 -0.5611,1.25561 -1.25561,1.25561 h -7.53363 c -0.69451,0 -1.2556,-0.5611 -1.2556,-1.25561 v -7.53362 c 0,-0.694515 0.56109,-1.255607 1.2556,-1.255607 z m 7.53363,1.255607 h -7.53363 v 7.53362 h 7.53363 z"
       id="path10933"
       style="fill:#ffffff;stroke-width:0.0392376" /><path
       d="m 225.9727,59.53515 c -0.0571,-0.304651 -0.26276,-0.559796 -0.54838,-0.677848 -0.2856,-0.118053 -0.61311,-0.08378 -0.86825,0.09139 l -3.14172,2.163023 -3.14171,-2.166831 c -0.25514,-0.175174 -0.58265,-0.209448 -0.86825,-0.09139 -0.28561,0.118052 -0.49126,0.373197 -0.54838,0.677848 l -0.68927,3.751017 -3.75102,0.693081 c -0.30465,0.05712 -0.55979,0.262762 -0.67785,0.548371 -0.11805,0.285611 -0.0838,0.61311 0.0914,0.868256 l 2.16302,3.141716 -2.16683,3.141713 c -0.17517,0.255145 -0.20945,0.582646 -0.0914,0.868256 0.11805,0.285611 0.37319,0.495059 0.67784,0.548371 l 3.75102,0.689274 0.68927,3.751015 c 0.0571,0.304651 0.26276,0.559797 0.54838,0.67785 0.28561,0.118052 0.61311,0.08378 0.86826,-0.0914 l 3.14551,-2.163023 3.14172,2.166832 c 0.25514,0.175174 0.58265,0.209446 0.86825,0.0914 0.28562,-0.118053 0.49126,-0.373198 0.54838,-0.67785 l 0.68927,-3.751017 3.75102,-0.689272 c 0.30465,-0.05712 0.55979,-0.26276 0.67785,-0.548371 0.11805,-0.28561 0.0838,-0.613111 -0.0914,-0.868256 l -2.16302,-3.145521 2.16683,-3.141716 c 0.17517,-0.255146 0.20945,-0.582645 0.0914,-0.868256 -0.11805,-0.285609 -0.3732,-0.491249 -0.67784,-0.548371 l -3.75102,-0.689273 z m -4.04044,3.43875 2.49814,-1.721279 0.54838,2.981772 c 0.0685,0.373199 0.36177,0.666425 0.73497,0.734972 l 2.98177,0.548371 -1.72128,2.498138 c -0.21707,0.312269 -0.21707,0.723548 0,1.035815 l 1.72128,2.498139 -2.98177,0.548372 c -0.3732,0.06854 -0.66643,0.361773 -0.73497,0.734971 l -0.54838,2.981772 -2.49814,-1.721279 c -0.31227,-0.217065 -0.72354,-0.217065 -1.03581,0 l -2.49814,1.721279 -0.54838,-2.981772 c -0.0685,-0.373198 -0.36177,-0.666424 -0.73497,-0.734971 l -2.98177,-0.548372 1.72128,-2.498139 c 0.21707,-0.312267 0.21707,-0.723546 0,-1.035815 l -1.72128,-2.498138 2.98177,-0.548371 c 0.3732,-0.06854 0.66643,-0.361773 0.73497,-0.734972 l 0.54838,-2.981772 2.49814,1.721279 c 0.31227,0.217063 0.72354,0.217063 1.03581,0 z m -0.51791,9.824997 a 4.2651155,4.2651155 0 1 0 0,-8.530231 4.2651155,4.2651155 0 1 0 0,8.530231 z m -2.43721,-4.265114 a 2.43721,2.43721 0 1 1 4.87442,0 2.43721,2.43721 0 1 1 -4.87442,0 z"
       id="path11668"
       style="fill:#ffffff;stroke-width:0.0380813" /><path
       d="m 214.38453,98.640852 c -1.2528,0 -2.27137,1.018571 -2.27137,2.271368 v 2.27136 c 0,1.25281 1.01857,2.27137 2.27137,2.27137 h 13.62823 c 1.25279,0 2.27137,-1.01856 2.27137,-2.27137 v -2.27136 c 0,-1.252797 -1.01858,-2.271368 -2.27137,-2.271368 z m 9.93724,2.555288 a 0.85176553,0.85176553 0 1 1 0,1.70352 0.85176553,0.85176553 0 1 1 0,-1.70352 z m 1.70354,0.85176 a 0.85176553,0.85176553 0 1 1 1.70353,0 0.85176553,0.85176553 0 1 1 -1.70353,0 z m -11.64078,5.67842 c -1.2528,0 -2.27137,1.01857 -2.27137,2.27137 v 2.27138 c 0,1.2528 1.01857,2.27136 2.27137,2.27136 h 13.62823 c 1.25279,0 2.27137,-1.01856 2.27137,-2.27136 v -2.27138 c 0,-1.2528 -1.01858,-2.27137 -2.27137,-2.27137 z m 9.93724,2.55529 a 0.85176553,0.85176553 0 1 1 0,1.70353 0.85176553,0.85176553 0 1 1 0,-1.70353 z m 1.98746,0.85177 a 0.85176553,0.85176553 0 1 1 1.70353,0 0.85176553,0.85176553 0 1 1 -1.70353,0 z"
       id="path13129"
       style="fill:#ffffff;stroke-width:0.0354901" /><path
       d="m 212.27594,154.15446 v -3.26563 h -6.64083 l 4.1423,-6.00524 h -2.08211 l 5.82991,-8.2627 2.63003,3.72589 2.63003,-3.72589 5.8299,8.2627 h -2.06019 l 4.1204,6.00524 h -6.61892 v 3.26563 H 217.536 v -3.26563 h -2.73961 v 3.26563 z m 8.26269,-4.58065 h 3.61629 l -4.1423,-6.00524 h 1.95061 l -3.17796,-4.51489 -1.75336,2.52045 2.32321,3.30946 h -2.06021 z m -12.36116,0 h 10.71738 l -4.14229,-6.00524 h 1.9506 l -3.17795,-4.51489 -3.17796,4.51489 h 1.97252 z m 0,0 h 4.1423 -1.97252 6.35591 -1.9506 4.14229 z m 12.36116,0 h -3.24372 2.06021 -2.32321 4.93132 -1.95061 4.1423 z m -3.00263,1.31502 h 2.52046 z m 3.90123,0 z"
       id="path13864"
       style="fill:#ffffff;stroke-width:0.438338" /><g
       style="fill:#ffffff"
       id="g14676"
       transform="matrix(0.04683374,0,0,0.04683374,14.611556,86.328389)"><g
         id="g14603"
         style="fill:#ffffff">&#10;	<g
   id="g14601"
   style="fill:#ffffff">&#10;		<path
   d="m 502.086,315.619 c -0.67,-0.038 -73.325,-3.97 -155.581,26.071 -18.495,6.755 -36.088,14.727 -52.666,23.848 -70.67,-28.524 -143.039,-40.607 -191.763,-45.714 -0.969,-0.101 -1.918,-0.196 -2.876,-0.293 v -11.647 c 8.823,-0.636 20.785,-3.249 29.473,-11.882 14.525,-14.443 12.146,-38.461 11.826,-41.152 l -0.117,0.014 c -0.537,-4.69 -4.228,-8.578 -9.118,-9.175 -2.683,-0.327 -26.618,-2.79 -41.082,11.587 -0.456,0.452 -0.893,0.914 -1.317,1.384 -0.422,-0.47 -0.86,-0.932 -1.316,-1.383 -14.47,-14.38 -38.405,-11.917 -41.084,-11.588 v 0.003 c -4.729,0.517 -8.65,4.236 -9.234,9.161 -0.32,2.691 -2.699,26.709 11.829,41.153 8.612,8.557 20.441,11.199 29.239,11.864 v 9.801 C 37.628,314.567 11.361,315.56 10.069,315.614 4.466,315.84 0.04,320.449 0.041,326.057 L 0.083,501.555 C 0.087,507.323 4.765,512 10.535,512 h 490.972 c 5.77,0 10.449,-4.678 10.449,-10.449 V 326.052 c 10e-4,-5.546 -4.333,-10.126 -9.87,-10.433 z M 104.912,272.098 c 3.655,-3.633 9.564,-5.143 14.775,-5.661 -0.554,5.21 -2.1,11.119 -5.745,14.742 -3.584,3.56 -9.34,5.103 -14.465,5.682 -0.026,-0.388 -0.06,-0.785 -0.094,-1.184 0.629,-4.921 2.166,-10.238 5.529,-13.579 z m 166.235,107.064 c -8.083,5.283 -15.888,10.858 -23.38,16.732 -2.25,1.764 -4.471,3.559 -6.669,5.377 -40.344,-26.82 -85.253,-45.718 -122.296,-58.359 44.867,5.759 98.886,16.467 152.345,36.25 z M 78.256,286.861 c -5.127,-0.58 -10.881,-2.122 -14.461,-5.68 -3.646,-3.624 -5.192,-9.528 -5.746,-14.747 5.2,0.519 11.116,2.028 14.774,5.664 3.362,3.342 4.898,8.658 5.528,13.573 -0.036,0.402 -0.068,0.8 -0.095,1.19 z M 20.983,491.102 20.947,342.766 c 30.182,16.184 100.274,61.528 135.99,148.336 z M 80.995,357.577 c -3.151,-2.522 -6.252,-4.91 -9.295,-7.182 43.319,11.869 102.093,32.336 153.207,65.251 -19.426,18.419 -36.459,39.195 -50.927,62.117 C 149.023,420.401 110.446,381.154 80.995,357.577 Z M 190.259,491.102 C 251.512,392.341 350.86,356.437 420.24,343.497 c -5.439,2.55 -11.017,5.306 -16.691,8.285 -29.931,15.718 -56.245,34.372 -78.211,55.443 -25.834,24.782 -45.671,52.972 -59.052,83.877 z m 99.029,0 c 29.537,-61.058 82.638,-99.027 123.448,-120.54 14.447,-7.614 28.351,-13.734 40.756,-18.573 -2.074,2.135 -4.182,4.365 -6.321,6.714 -22.996,25.266 -53.606,68.45 -71.426,132.399 z m 201.771,0 h -93.57 c 16.77,-56.482 43.933,-94.863 64.482,-117.611 10.975,-12.149 21.198,-21.169 29.088,-27.399 z"
   id="path14599"
   style="fill:#ffffff" />&#10;	</g>&#10;</g><g
         id="g14609"
         style="fill:#ffffff">&#10;	<g
   id="g14607"
   style="fill:#ffffff">&#10;		<path
   d="M 443.858,36.895 C 432.215,14.553 408.626,0 382.979,0 c -25.647,0 -49.235,14.553 -60.88,36.894 -32.106,0.83 -57.963,27.131 -57.963,59.342 0,5.77 4.679,10.449 10.449,10.449 h 65.048 l -3.723,3.723 c -4.08,4.08 -4.08,10.697 0,14.778 2.041,2.04 4.715,3.06 7.388,3.06 2.675,0 5.348,-1.021 7.388,-3.06 l 18.5,-18.5 h 50.381 l -3.742,3.742 c -4.08,4.08 -4.08,10.697 0,14.778 2.041,2.041 4.715,3.061 7.388,3.061 2.675,0 5.348,-1.02 7.388,-3.061 l 18.52,-18.52 h 42.249 c 5.77,0 10.449,-4.679 10.449,-10.449 0.003,-32.209 -25.857,-58.509 -57.961,-59.342 z M 286.483,85.787 c 4.585,-16.149 19.519,-28.016 37.183,-28.016 1.272,0 2.624,0.07 4.02,0.21 4.679,0.461 9.103,-2.257 10.791,-6.651 6.99,-18.203 24.875,-30.433 44.503,-30.433 19.628,0 37.512,12.229 44.503,30.432 1.687,4.395 6.101,7.116 10.791,6.652 1.395,-0.14 2.746,-0.21 4.018,-0.21 17.666,0 32.602,11.867 37.187,28.016 z"
   id="path14605"
   style="fill:#ffffff" />&#10;	</g>&#10;</g><g
         id="g14615"
         style="fill:#ffffff">&#10;	<g
   id="g14613"
   style="fill:#ffffff">&#10;		<path
   d="m 114.702,96 c -12.55,0 -23.823,5.545 -31.52,14.304 C 75.483,101.544 64.211,96 51.661,96 c -5.77,0 -10.449,4.678 -10.449,10.449 0,5.771 4.679,10.449 10.449,10.449 11.618,0 21.071,9.453 21.071,21.071 0,5.771 4.679,10.449 10.449,10.449 5.77,0 10.449,-4.678 10.449,-10.449 0,-11.618 9.453,-21.071 21.071,-21.071 5.77,0 10.449,-4.678 10.449,-10.449 C 125.151,100.678 120.472,96 114.702,96 Z"
   id="path14611"
   style="fill:#ffffff" />&#10;	</g>&#10;</g><g
         id="g14621"
         style="fill:#ffffff">&#10;	<g
   id="g14619"
   style="fill:#ffffff">&#10;		<path
   d="m 209.133,127.52 c -12.55,0 -23.823,5.545 -31.52,14.304 -7.698,-8.759 -18.97,-14.304 -31.52,-14.304 -5.77,0 -10.449,4.678 -10.449,10.449 0,5.771 4.679,10.449 10.449,10.449 11.618,0 21.071,9.453 21.071,21.071 0,5.771 4.679,10.449 10.449,10.449 5.77,0 10.449,-4.678 10.449,-10.449 0,-11.618 9.453,-21.071 21.071,-21.071 5.77,0 10.449,-4.678 10.449,-10.449 0,-5.771 -4.679,-10.449 -10.449,-10.449 z"
   id="path14617"
   style="fill:#ffffff" />&#10;	</g>&#10;</g><g
         id="g14627"
         style="fill:#ffffff">&#10;	<g
   id="g14625"
   style="fill:#ffffff">&#10;		<path
   d="m 314.508,117.386 c -4.081,-4.08 -10.696,-4.08 -14.777,0 l -21.579,21.579 c -4.08,4.08 -4.08,10.697 0,14.778 2.041,2.041 4.715,3.06 7.388,3.06 2.674,0 5.348,-1.02 7.388,-3.06 l 21.579,-21.579 c 4.081,-4.08 4.081,-10.697 10e-4,-14.778 z"
   id="path14623"
   style="fill:#ffffff" />&#10;	</g>&#10;</g><g
         id="g14633"
         style="fill:#ffffff">&#10;	<g
   id="g14631"
   style="fill:#ffffff">&#10;		<path
   d="m 267.899,163.994 c -4.081,-4.08 -10.696,-4.08 -14.778,0 l -4.719,4.719 c -4.08,4.08 -4.08,10.697 0,14.778 2.042,2.041 4.715,3.06 7.39,3.06 2.675,0 5.348,-1.021 7.388,-3.06 l 4.719,-4.719 c 4.081,-4.081 4.081,-10.697 0,-14.778 z"
   id="path14629"
   style="fill:#ffffff" />&#10;	</g>&#10;</g><g
         id="g14639"
         style="fill:#ffffff">&#10;	<g
   id="g14637"
   style="fill:#ffffff">&#10;		<path
   d="m 400.793,117.381 c -4.081,-4.08 -10.696,-4.08 -14.777,0 l -31.801,31.801 c -4.08,4.08 -4.08,10.697 0,14.778 2.041,2.041 4.715,3.06 7.388,3.06 2.675,0 5.348,-1.02 7.388,-3.06 l 31.801,-31.802 c 4.081,-4.08 4.081,-10.696 0.001,-14.777 z"
   id="path14635"
   style="fill:#ffffff" />&#10;	</g>&#10;</g><g
         id="g14645"
         style="fill:#ffffff">&#10;	<g
   id="g14643"
   style="fill:#ffffff">&#10;		<path
   d="m 343.754,174.42 c -4.081,-4.08 -10.696,-4.08 -14.777,0 l -5.395,5.395 c -4.08,4.08 -4.08,10.697 0,14.778 2.041,2.041 4.715,3.06 7.388,3.06 2.675,0 5.348,-1.02 7.388,-3.06 l 5.395,-5.395 c 4.081,-4.081 4.081,-10.697 0.001,-14.778 z"
   id="path14641"
   style="fill:#ffffff" />&#10;	</g>&#10;</g></g><g
       id="g15408"
       transform="matrix(0.04379314,0,0,0.04379314,-22.143421,51.097268)"
       style="fill:#ffffff">&#10;	<path
   class="st0"
   d="m 495.271,91.194 c -6.567,19.274 -13.559,38.642 -21.21,58.025 l -29.43,-11.618 c 3.666,-9.296 7.194,-18.622 10.596,-27.947 3.15,-8.615 3.25,-17.94 0.338,-26.064 -4.223,-11.78 -8.652,-23.376 -13.127,-34.928 L 459.828,4.394 448.656,0 432.481,41.169 c -11.816,7.596 -23.672,15.039 -35.572,22.21 -7.212,4.336 -12.779,11.186 -15.731,19.258 -3.19,8.747 -6.476,17.427 -9.864,26.027 l -29.43,-11.61 C 348.52,80.227 354.77,62.954 360.762,45.38 L 349.32,41.483 c -5.937,17.434 -12.124,34.524 -18.68,51.131 l -2.875,7.194 c -2.136,5.267 -4.304,10.482 -6.52,15.647 -3.655,8.534 -3.601,18.086 0.117,26.628 3.762,8.637 7.377,17.376 10.816,26.24 L 303.415,153.73 c -3.578,7.055 -7.267,13.97 -11.083,20.739 -4.333,7.699 -5.179,16.841 -2.399,25.58 2.824,8.827 5.41,17.786 7.747,26.906 l -26.621,-18.211 c -4.285,6.278 -8.724,12.402 -13.31,18.402 -5.205,6.812 -7.252,15.596 -5.732,24.599 1.56,9.083 2.82,18.298 3.795,27.66 l -23.646,-21.933 c -5.146,5.553 -10.464,10.989 -15.951,16.307 -6.216,6.058 -9.651,14.584 -9.501,23.792 0.487,28.188 -1.652,57.336 -5.879,86.828 -4.007,2.886 -8.036,5.736 -12.105,8.534 -23.859,16.453 -48.688,31.572 -74.067,45.769 5.043,-5.172 9.376,-10.256 13.145,-15.252 5.077,-6.754 9.124,-13.368 12.526,-19.925 5.106,-9.846 8.754,-19.53 12.281,-29.55 3.524,-10.036 6.923,-20.453 11.23,-32.071 2.872,-7.758 5.538,-15.508 7.988,-23.221 -6.395,4.856 -12.948,9.596 -19.614,14.255 -24.972,17.398 -45.186,33.762 -61.214,49.578 -12.036,11.831 -21.723,23.281 -29.488,34.086 -11.662,16.189 -18.973,30.921 -23.928,42.648 -2.48,5.853 -4.38,10.952 -5.96,14.973 -0.783,2.022 -1.49,3.766 -2.113,5.165 -0.622,1.392 -1.172,2.439 -1.531,2.996 l -0.623,0.974 -22.076,10.264 6.396,13.992 18.471,-8.564 6.058,0.718 c 0.59,0.066 1.578,0.264 2.838,0.579 2.359,0.6 5.622,1.633 9.596,2.856 6.963,2.117 16.123,4.798 27.532,6.637 17.123,2.754 39.407,3.692 67.254,-2.205 27.767,-5.97 61.383,-18.599 99.384,-45 8.226,-5.758 16.405,-11.684 24.5,-17.816 -9.486,1.319 -18.903,2.41 -28.25,3.304 -16.585,1.56 -30.312,1.172 -43.637,0.791 -9.985,-0.286 -19.738,-0.586 -30.096,-0.168 -7.761,0.301 -15.856,0.997 -24.573,2.337 -8.359,1.282 -17.288,3.15 -27.108,5.757 28.672,-15.72 56.79,-32.612 83.814,-51.248 4.15,-2.856 8.263,-5.764 12.358,-8.71 29.672,5.091 60.38,8.344 92.227,8.922 10.376,0.19 21.474,-4.439 30.008,-12.746 7.501,-7.289 14.849,-14.79 22.002,-22.504 l -23.646,-21.94 c 10.343,-0.732 20.774,-1.788 31.265,-3.186 10.383,-1.356 20.818,-7.677 28.115,-17.23 6.402,-8.38 12.588,-16.921 18.508,-25.588 l -26.62,-18.21 c 10.109,-2.249 20.255,-4.791 30.389,-7.633 10.043,-2.799 19.358,-10.431 25.122,-20.673 5.066,-8.995 9.894,-18.049 14.504,-27.133 l -28.759,-14.599 c 9.662,-3.414 19.313,-7.048 28.939,-10.878 9.534,-3.787 17.713,-12.065 22.163,-22.46 2.699,-6.278 5.311,-12.563 7.852,-18.841 l 3.41,-8.527 c 7.74,-19.61 14.794,-39.147 21.412,-58.566 z m -99.643,-3.282 c 1.579,-4.322 4.557,-7.97 8.392,-10.256 7.23,-4.315 14.438,-8.71 21.632,-13.192 1.186,-0.74 2.574,-0.924 3.831,-0.499 1.253,0.425 2.249,1.406 2.74,2.725 2.985,7.956 5.907,15.962 8.753,24.034 1.513,4.278 1.443,9.157 -0.194,13.654 -3.777,10.351 -7.695,20.665 -11.798,30.95 -8.523,3.648 -17.065,7.15 -25.606,10.497 -3.219,1.26 -6.629,-0.205 -7.977,-3.362 -3.571,-8.41 -7.263,-16.716 -11.058,-24.936 3.904,-9.785 7.655,-19.667 11.285,-29.615 z m -60.248,33.609 1.827,-4.3 c 1.026,-2.403 3.766,-3.575 6.15,-2.586 l 27.049,11.238 c 4.527,9.853 8.893,19.837 13.061,29.982 0.747,1.81 0.689,3.934 -0.168,5.802 -4.501,9.867 -9.205,19.617 -14.15,29.242 -1.274,2.491 -3.798,4.029 -6.398,3.956 -2.611,-0.089 -4.82,-1.766 -5.684,-4.278 -6.464,-18.812 -13.746,-36.994 -21.624,-54.736 -2.004,-4.541 -2.033,-9.735 -0.063,-14.32 z m -29.646,60.5 2.183,-3.912 c 1.22,-2.212 4.029,-3.018 6.3,-1.794 l 26.02,14.086 c 3.479,10.102 6.702,20.372 9.636,30.84 0.538,1.876 0.22,3.949 -0.828,5.7 -2.003,3.289 -4.022,6.564 -6.094,9.808 -3.729,5.868 -7.571,11.67 -11.545,17.384 -1.586,2.3 -4.289,3.487 -6.85,3.054 -2.568,-0.432 -4.538,-2.403 -5.069,-4.988 -3.94,-19.426 -9.043,-38.195 -15.046,-56.347 -1.542,-4.652 -1.069,-9.64 1.293,-13.831 z m -35.77,54.472 2.648,-3.501 c 1.476,-1.949 4.329,-2.33 6.413,-0.806 l 23.859,17.5 c 2.124,10.409 3.904,21.002 5.322,31.77 0.26,1.926 -0.348,3.934 -1.641,5.509 -2.447,2.959 -4.919,5.904 -7.439,8.805 -4.546,5.26 -9.197,10.431 -13.966,15.493 -1.912,2.029 -4.754,2.82 -7.23,2.008 -2.476,-0.813 -4.135,-3.047 -4.274,-5.684 -1.022,-19.786 -3.318,-39.103 -6.78,-57.776 -0.886,-4.791 0.231,-9.582 3.088,-13.318 z m -46.285,125.821 c -2.355,-1.128 -3.703,-3.568 -3.48,-6.205 1.666,-19.8 2.252,-39.366 1.637,-58.464 -0.15,-4.886 1.696,-9.523 5.095,-12.827 l 3.157,-3.098 c 1.758,-1.736 4.652,-1.692 6.49,0.124 l 21.02,20.819 c 0.55,10.615 0.744,21.376 0.582,32.254 -0.033,1.935 -0.908,3.854 -2.421,5.216 -2.85,2.586 -5.725,5.15 -8.63,7.677 -5.248,4.578 -10.585,9.069 -15.998,13.456 -2.178,1.759 -5.097,2.176 -7.452,1.048 z m 97.662,19.713 c -4.395,4.271 -10.106,6.717 -15.555,6.703 -21.299,-0.03 -42.11,-1.305 -62.442,-3.59 -2.714,-0.315 -4.78,-2.184 -5.307,-4.748 -0.527,-2.578 0.56,-5.384 2.791,-7.178 5.552,-4.498 11.021,-9.106 16.412,-13.808 2.982,-2.6 5.937,-5.23 8.868,-7.89 1.549,-1.406 3.552,-2.168 5.534,-2.08 11.054,0.483 22.233,0.608 33.547,0.373 l 24.342,24.108 z m 59.706,-67.76 -3.472,4.579 c -3.751,4.908 -9.091,8.204 -14.508,9.017 -21.196,3.157 -42.113,4.952 -62.636,5.435 -2.74,0.066 -5.029,-1.516 -5.886,-4.007 -0.861,-2.475 -0.147,-5.398 1.824,-7.494 4.915,-5.216 9.702,-10.548 14.398,-15.969 2.597,-2.996 5.143,-6.021 7.67,-9.083 1.33,-1.619 3.22,-2.645 5.182,-2.857 11.018,-1.128 22.123,-2.652 33.279,-4.578 l 23.855,17.507 c 2.081,1.524 2.235,4.872 0.294,7.45 z m 44.12,-77.891 c 2.278,1.231 2.901,4.469 1.367,7.245 l -2.748,4.923 c -2.974,5.289 -7.746,9.237 -12.962,10.761 -20.423,6.006 -40.828,10.856 -61.057,14.372 -2.7,0.469 -5.194,-0.755 -6.417,-3.092 -1.223,-2.337 -0.934,-5.318 0.696,-7.684 4.091,-5.882 8.05,-11.86 11.888,-17.904 2.132,-3.333 4.205,-6.702 6.264,-10.087 1.08,-1.802 2.802,-3.084 4.714,-3.568 10.728,-2.673 21.49,-5.706 32.24,-9.054 z m 36.88,-66.449 -2.142,5.032 c -2.319,5.4 -6.527,9.692 -11.497,11.713 -19.409,7.912 -38.946,15.047 -58.472,21.149 -2.596,0.821 -5.248,-0.066 -6.764,-2.205 -1.528,-2.146 -1.642,-5.135 -0.341,-7.692 5.066,-9.846 9.871,-19.815 14.464,-29.88 0.872,-1.912 2.432,-3.392 4.296,-4.08 10.431,-3.817 20.837,-7.89 31.225,-12.168 l 27.056,11.238 c 2.38,0.989 3.369,4.073 2.175,6.893 z"
   id="path15406"
   style="fill:#ffffff" />&#10;</g></g><style
     type="text/css"
     id="style15404">&#10;	.st0{fill:#000000;}&#10;</style></svg>
